<svg width="189" height="38" viewBox="0 0 189 38" fill="none" xmlns="http://www.w3.org/2000/svg">
<path d="M23.625 0.000824544C21.3264 0.0250166 19.6293 0.498644 17.0055 1.39976C12.8945 3.83208 13.8831 4.32648 16.8718 4.06429L22.2209 4.19751C30.0771 3.95948 28.6418 0.330118 26.1881 0.134079C25.229 0.0429153 24.3912 -0.00713448 23.625 0.000824544V0.000824544ZM34.3455 1.57738C29.7732 1.50775 27.0493 3.30727 31.6264 6.99526L39.806 13.5678C41.4796 15.6001 40.0653 17.1109 38.5356 15.8548L29.8433 8.48293C24.3538 3.00679 15.0426 16.8067 20.1927 19.0301C27.578 22.1243 33.0682 25.4253 26.1658 29.777C22.9257 30.4543 24.2462 27.7394 25.9653 26.2243C28.8885 23.6478 15.0598 16.1963 15.0888 28.4225C15.3018 32.2949 14.6641 35.0672 18.2314 35.1505L29.1078 35.3947C31.7175 35.4452 32.1683 33.1216 32.6739 30.8429C33.3956 29.4805 34.1141 29.8032 34.8358 30.5764C35.2561 32.2231 34.0293 35.1504 36.9977 35.2837C46.76 35.7221 46.0758 21.702 35.9948 23.0935L27.9712 16.4987C26.7943 14.6673 28.014 13.7414 29.7542 14.7224L36.3291 19.5852C42.8662 24.0273 44.6192 17.3886 43.6395 14.456L41.7228 10.5257C40.7997 9.13927 42.1974 8.21081 43.1269 9.90403C47.3964 16.8243 45.6418 16.5438 45.1551 19.9183C44.5362 24.209 45.5165 28.1591 46.2918 30.7096C47.9385 34.0417 50.9479 29.4728 51.9083 27.5343C53.2763 24.2789 54.5654 20.5225 52.9335 17.387C52.3495 15.7035 51.2632 15.5567 50.3704 17.2537C49.2778 21.0419 46.0956 19.6305 47.4507 17.387C54.738 6.99796 41.966 1.69341 34.3455 1.57738V1.57738ZM13.7515 5.41871C12.1672 5.47696 10.5937 5.74407 9.11566 6.39571C7.20095 7.23991 6.69201 9.39291 6.44112 11.3029C6.27404 12.5749 7.16274 12.528 8.04584 12.4353C9.2648 12.3073 11.6748 13.4691 10.6981 14.5669C9.79294 15.5844 8.11562 16.0209 6.70857 15.433C5.68309 15.0044 5.16441 13.6253 4.07861 13.6788C2.55722 13.7537 1.762 15.3891 1.22577 16.632C-0.0286217 19.5393 -0.145681 22.8432 0.111374 26.0244C0.372473 29.2558 2.05677 32.7117 5.23758 33.8404C7.14308 34.5165 9.40959 34.5958 11.2553 33.685C13.7086 32.3671 12.9689 27.6352 13.3281 24.7588C13.5174 23.4471 13.8837 21.4024 12.236 21.0062C10.9459 20.6961 9.56109 21.0282 8.29101 21.4281C7.01796 21.829 5.99456 23.1511 6.90916 24.3813C7.36788 24.9983 7.50596 25.5614 7.5778 26.3575C7.7123 27.8482 6.15329 26.8068 5.52732 26.3795C4.13517 25.4296 3.73238 23.0562 4.90326 21.7387C6.86276 19.534 9.94553 18.8614 12.7263 18.2527C13.9776 17.9787 14.9845 17.3965 15.7351 16.5208C17.4954 14.4672 18.6094 11.6379 19.8584 9.21545C20.5728 7.82982 20.1923 5.84235 18.4988 5.66272C16.9462 5.49809 15.3359 5.36061 13.7515 5.41853V5.41871Z" fill="#4BC3F0"/>
<path d="M89.8688 29.0694H86.0487V11.9031C86.0487 11.0529 86.13 7.36857 86.13 4.65596H86.0487L77.8397 29.0694H73.9384L65.7293 4.69645H65.6481C65.6481 7.36857 65.7293 11.0529 65.7293 11.9031V29.0694H61.9093V0H67.5581L75.889 24.5754H75.9703L84.2606 0H89.8688V29.0694V29.0694ZM100.313 16.5995V29.0694H96.371V0H109.863C114.658 0 119.454 1.65995 119.454 7.81392C119.454 12.1055 117.259 13.6845 115.39 14.7776C117.056 15.4659 118.722 16.1947 118.885 20.2433L119.129 25.5066C119.169 27.1261 119.373 27.7334 120.592 28.4216V29.0694H115.756C115.187 27.288 115.065 22.875 115.065 21.7818C115.065 19.3931 114.577 16.5995 109.863 16.5995H100.313V16.5995ZM100.313 3.36039V13.2391H109.457C112.342 13.2391 115.39 12.5104 115.39 8.21879C115.39 3.72477 112.098 3.36039 110.148 3.36039H100.313V3.36039ZM129.776 0V29.0694H125.834V0H129.776ZM136.075 29.0694V7.8949H139.448V10.8909H139.529C140.301 9.75728 142.13 7.2876 145.95 7.2876C149.77 7.2876 150.989 9.59533 151.599 10.729C153.387 8.74511 154.81 7.2876 158.101 7.2876C160.377 7.2876 164.685 8.46171 164.685 14.4132V29.0694H161.109V15.3849C161.109 12.4699 160.214 10.486 157.167 10.486C154.159 10.486 152.168 13.3201 152.168 16.1542V29.0694H148.592V14.4132C148.592 12.6318 147.901 10.486 145.259 10.486C143.227 10.486 139.651 11.7816 139.651 17.5307V29.0694H136.075V29.0694ZM184.395 22.4296H187.971C187.849 23.4418 186.874 26.4378 184.191 28.2192C183.216 28.867 181.834 29.6767 178.421 29.6767C172.447 29.6767 168.911 25.1827 168.911 19.0692C168.911 12.5104 172.081 7.2876 179.112 7.2876C185.248 7.2876 188.255 12.146 188.255 19.636H172.731C172.731 24.0491 174.804 26.5997 178.908 26.5997C182.281 26.5997 184.273 24.0086 184.395 22.4296V22.4296ZM172.731 16.802H184.557C184.354 13.5225 182.972 10.486 178.624 10.486C175.332 10.486 172.731 13.5225 172.731 16.802Z" fill="#F9F9F9"/>
<path d="M65.2729 37.9369L63.4277 35.3572L62.4645 36.2607V37.9369H61.9078V33.5002H62.4645V35.513L64.6099 33.5002H65.4105L63.8531 34.9646L65.9797 37.9369H65.2729ZM74.0095 37.9369L71.6265 34.4287V37.9369H71.0635V33.5002H71.6765L74.0533 37.0085V33.5002H74.6162V37.9369H74.0095ZM82.0769 33.3632C83.3591 33.3632 84.4099 34.4038 84.4099 35.6874C84.4099 36.9649 83.3591 37.9993 82.0769 37.9993C80.7947 37.9993 79.7501 36.9649 79.7501 35.6874C79.7501 34.4038 80.7947 33.3632 82.0769 33.3632V33.3632ZM82.0769 37.4509C83.0526 37.4509 83.8407 36.6533 83.8407 35.6874C83.8407 34.7154 83.0526 33.9115 82.0769 33.9115C81.1012 33.9115 80.3131 34.7154 80.3131 35.6874C80.3131 36.6533 81.1012 37.4509 82.0769 37.4509ZM93.4843 37.9369L92.1708 35.6501L90.8636 37.9369H90.2631L89.0184 33.5002H89.6064L90.6384 37.2079L91.8581 35.0768H92.4898L93.7032 37.2079L94.7415 33.5002H95.3295L94.0848 37.9369H93.4843V37.9369ZM107.48 37.9369V35.6937L105.91 33.5002H106.598L107.768 35.1266L108.937 33.5002H109.619L108.049 35.6937V37.9369H107.48ZM116.454 33.3632C117.736 33.3632 118.787 34.4038 118.787 35.6874C118.787 36.9649 117.736 37.9993 116.454 37.9993C115.172 37.9993 114.127 36.9649 114.127 35.6874C114.127 34.4038 115.172 33.3632 116.454 33.3632V33.3632ZM116.454 37.4509C117.43 37.4509 118.218 36.6533 118.218 35.6874C118.218 34.7154 117.43 33.9115 116.454 33.9115C115.479 33.9115 114.69 34.7154 114.69 35.6874C114.69 36.6533 115.479 37.4509 116.454 37.4509ZM126.654 33.5002H127.217V36.3106C127.217 37.2453 126.454 37.9993 125.516 37.9993C124.584 37.9993 123.821 37.2453 123.821 36.3106V33.5002H124.378V36.3106C124.378 36.9399 124.891 37.4571 125.516 37.4571C126.148 37.4571 126.654 36.9399 126.654 36.3106V33.5002V33.5002ZM134.322 35.5753L136.042 37.9369H135.397L133.696 35.6064H133.058V37.9369H132.52V33.5002H134.065C134.347 33.5002 134.609 33.6124 134.809 33.8118C135.01 34.0112 135.122 34.2729 135.122 34.5533C135.122 35.0456 134.778 35.4569 134.322 35.5753ZM133.058 34.0361V35.0705H134.065C134.353 35.0705 134.584 34.84 134.584 34.5533C134.584 34.2667 134.353 34.0361 134.065 34.0361H133.058ZM146.866 37.9369V33.5002H148.467C148.749 33.5002 149.018 33.6124 149.212 33.8118C149.412 34.005 149.524 34.2729 149.524 34.5533C149.524 34.7714 149.462 34.9771 149.337 35.1515L149.33 35.1578L149.337 35.164C149.512 35.2326 149.674 35.3385 149.806 35.4756C150.081 35.7435 150.231 36.1049 150.231 36.4913C150.231 36.8714 150.081 37.2328 149.806 37.507C149.537 37.7749 149.174 37.9369 148.793 37.9369H146.866V37.9369ZM147.423 37.3948H148.793C149.28 37.3824 149.674 36.9711 149.674 36.4913C149.674 36.0052 149.28 35.6064 148.793 35.6002H147.423V37.3948ZM147.423 35.0581H148.467C148.743 35.0518 148.968 34.8275 148.968 34.5533C148.968 34.2792 148.749 34.0548 148.467 34.0424H147.423V35.0581V35.0581ZM157.098 35.5753L158.818 37.9369H158.173L156.472 35.6064H155.834V37.9369H155.296V33.5002H156.841C157.123 33.5002 157.385 33.6124 157.585 33.8118C157.786 34.0112 157.898 34.2729 157.898 34.5533C157.898 35.0456 157.554 35.4569 157.098 35.5753V35.5753ZM155.834 34.0361V35.0705H156.841C157.129 35.0705 157.36 34.84 157.36 34.5533C157.36 34.2667 157.129 34.0361 156.841 34.0361H155.834ZM166.797 37.9369L166.303 36.6471H164.483L163.989 37.9369H163.389L165.102 33.5002H165.684L167.404 37.9369H166.797V37.9369ZM166.084 36.0987L165.396 34.3041L164.702 36.0987H166.084ZM172.551 37.9369V33.5002H173.114V37.9369H172.551ZM181.706 37.9369L179.323 34.4287V37.9369H178.76V33.5002H179.373L181.75 37.0085V33.5002H182.313V37.9369H181.706ZM187.903 37.2266C188.097 37.2266 188.254 37.3886 188.254 37.5818C188.254 37.7749 188.097 37.9369 187.903 37.9369C187.703 37.9369 187.547 37.7749 187.547 37.5818C187.547 37.3886 187.703 37.2266 187.903 37.2266Z" fill="#F9F9F9"/>
</svg>
